<?xml version="1.0" encoding="utf-8"?>
<!-- Generator: Adobe Illustrator 24.0.3, SVG Export Plug-In . SVG Version: 6.00 Build 0)  -->
<svg version="1.1" id="Layer_2" xmlns="http://www.w3.org/2000/svg" xmlns:xlink="http://www.w3.org/1999/xlink" x="0px" y="0px"
	 viewBox="0 0 40 40" style="enable-background:new 0 0 40 40;" xml:space="preserve">
<style type="text/css">
	.st0{fill-rule:evenodd;clip-rule:evenodd;fill:#FFFFFF;}
	.st1{fill-rule:evenodd;clip-rule:evenodd;fill:#D6212A;}
	.st2{fill-rule:evenodd;clip-rule:evenodd;fill:#233F88;}
</style>
<path class="st0" d="M20,40c11,0,20-9,20-20C40,9,31,0,20,0C9,0,0,9,0,20C0,31,9,40,20,40z"/>
<g>
	<path class="st1" d="M30.6,3H9.4c3.1-1.9,6.7-3,10.6-3C23.9,0,27.5,1.1,30.6,3z"/>
	<path class="st1" d="M36.8,9.2H3.2c0.7-1.1,1.5-2.1,2.4-3.1h28.9C35.3,7.1,36.1,8.1,36.8,9.2z"/>
	<path class="st1" d="M39.5,15.4H0.5c0.2-1.1,0.6-2.1,1-3.1h37C38.9,13.3,39.2,14.3,39.5,15.4z"/>
	<path class="st1" d="M39.9,21.6H0.1C0,21.1,0,20.5,0,20c0-0.5,0-1,0.1-1.5h39.9c0,0.5,0.1,1,0.1,1.5C40,20.5,40,21.1,39.9,21.6z"/>
	<path class="st1" d="M38.4,27.7H1.6c-0.4-1-0.7-2-1-3.1h38.9C39.2,25.7,38.9,26.8,38.4,27.7z"/>
	<path class="st1" d="M34.3,33.9H5.6c-0.9-0.9-1.7-2-2.4-3.1h33.6C36.1,32,35.3,33,34.3,33.9z"/>
	<path class="st1" d="M9.4,36.9h21.3C27.5,38.9,23.9,40,20,40C16.1,40,12.5,38.9,9.4,36.9z"/>
	<path class="st2" d="M20,0v21.6H0.1C0,21.1,0,20.5,0,20C0,9,9,0,20,0z"/>
	<path class="st0" d="M0.2,16.9l0.9,0l-0.8,0.6l0.3,0.9l-0.6-0.4C0.1,17.5,0.2,17.2,0.2,16.9z"/>
	<polygon class="st0" points="5.1,7.4 5.3,8.3 6.3,8.3 5.5,8.9 5.8,9.8 5.1,9.2 4.3,9.8 4.6,8.9 3.8,8.3 4.8,8.3 	"/>
	<path class="st0" d="M2.7,10l0.1,0.4l0.9,0L3,11l0.3,0.9l-0.8-0.6l-0.8,0.6l0-0.1C2.1,11.1,2.4,10.6,2.7,10z"/>
	<polygon class="st0" points="5.1,11.7 5.3,12.6 6.3,12.6 5.5,13.1 5.8,14 5.1,13.5 4.3,14 4.6,13.1 3.8,12.6 4.8,12.6 	"/>
	<polygon class="st0" points="2.5,13.8 2.8,14.7 3.7,14.7 3,15.2 3.3,16.1 2.5,15.6 1.7,16.1 2,15.2 1.3,14.7 2.2,14.7 	"/>
	<polygon class="st0" points="5.1,16 5.3,16.9 6.3,16.9 5.5,17.4 5.8,18.3 5.1,17.7 4.3,18.3 4.6,17.4 3.8,16.9 4.8,16.9 	"/>
	<polygon class="st0" points="2.5,18.1 2.8,19 3.7,19 3,19.5 3.3,20.4 2.5,19.9 1.7,20.4 2,19.5 1.3,19 2.2,19 	"/>
	<polygon class="st0" points="10.1,3.1 10.4,4 11.4,4 10.6,4.6 10.9,5.5 10.1,4.9 9.4,5.5 9.7,4.6 8.9,4 9.8,4 	"/>
	<polygon class="st0" points="7.6,5.2 7.9,6.1 8.8,6.1 8.1,6.7 8.3,7.6 7.6,7 6.8,7.6 7.1,6.7 6.4,6.1 7.3,6.1 	"/>
	<polygon class="st0" points="10.1,7.4 10.4,8.3 11.4,8.3 10.6,8.9 10.9,9.8 10.1,9.2 9.4,9.8 9.7,8.9 8.9,8.3 9.8,8.3 	"/>
	<polygon class="st0" points="7.6,9.5 7.9,10.4 8.8,10.4 8.1,11 8.3,11.9 7.6,11.3 6.8,11.9 7.1,11 6.4,10.4 7.3,10.4 	"/>
	<polygon class="st0" points="10.1,11.7 10.4,12.6 11.4,12.6 10.6,13.1 10.9,14 10.1,13.5 9.4,14 9.7,13.1 8.9,12.6 9.8,12.6 	"/>
	<polygon class="st0" points="7.6,13.8 7.9,14.7 8.8,14.7 8.1,15.2 8.3,16.1 7.6,15.6 6.8,16.1 7.1,15.2 6.4,14.7 7.3,14.7 	"/>
	<polygon class="st0" points="10.1,16 10.4,16.9 11.4,16.9 10.6,17.4 10.9,18.3 10.1,17.7 9.4,18.3 9.7,17.4 8.9,16.9 9.8,16.9 	"/>
	<polygon class="st0" points="7.6,18.1 7.9,19 8.8,19 8.1,19.5 8.3,20.4 7.6,19.9 6.8,20.4 7.1,19.5 6.4,19 7.3,19 	"/>
	<path class="st0" d="M12.8,1.3L13,1.9l0.9,0l-0.8,0.6l0.3,0.9l-0.8-0.6l-0.8,0.6l0.3-0.9l-0.7-0.5c0,0,0.1,0,0.1,0l0.8,0l0.1-0.4
		C12.6,1.4,12.7,1.4,12.8,1.3z"/>
	<polygon class="st0" points="15.2,3.1 15.5,4 16.4,4 15.7,4.6 16,5.5 15.2,4.9 14.4,5.5 14.7,4.6 14,4 14.9,4 	"/>
	<polygon class="st0" points="12.7,5.2 13,6.1 13.9,6.1 13.1,6.7 13.4,7.6 12.7,7 11.9,7.6 12.2,6.7 11.4,6.1 12.4,6.1 	"/>
	<polygon class="st0" points="15.2,7.4 15.5,8.3 16.4,8.3 15.7,8.9 16,9.8 15.2,9.2 14.4,9.8 14.7,8.9 14,8.3 14.9,8.3 	"/>
	<polygon class="st0" points="12.7,9.5 13,10.4 13.9,10.4 13.1,11 13.4,11.9 12.7,11.3 11.9,11.9 12.2,11 11.4,10.4 12.4,10.4 	"/>
	<polygon class="st0" points="15.2,11.7 15.5,12.6 16.4,12.6 15.7,13.1 16,14 15.2,13.5 14.4,14 14.7,13.1 14,12.6 14.9,12.6 	"/>
	<polygon class="st0" points="12.7,13.8 13,14.7 13.9,14.7 13.1,15.2 13.4,16.1 12.7,15.6 11.9,16.1 12.2,15.2 11.4,14.7 12.4,14.7 
			"/>
	<polygon class="st0" points="15.2,16 15.5,16.9 16.4,16.9 15.7,17.4 16,18.3 15.2,17.7 14.4,18.3 14.7,17.4 14,16.9 14.9,16.9 	"/>
	<polygon class="st0" points="12.7,18.1 13,19 13.9,19 13.1,19.5 13.4,20.4 12.7,19.9 11.9,20.4 12.2,19.5 11.4,19 12.4,19 	"/>
	<polygon class="st0" points="17.7,1 18,1.9 19,1.9 18.2,2.4 18.5,3.3 17.7,2.8 17,3.3 17.3,2.4 16.5,1.9 17.5,1.9 	"/>
	<polygon class="st0" points="17.7,5.2 18,6.1 19,6.1 18.2,6.7 18.5,7.6 17.7,7 17,7.6 17.3,6.7 16.5,6.1 17.5,6.1 	"/>
	<polygon class="st0" points="17.7,9.5 18,10.4 19,10.4 18.2,11 18.5,11.9 17.7,11.3 17,11.9 17.3,11 16.5,10.4 17.5,10.4 	"/>
	<polygon class="st0" points="17.7,13.8 18,14.7 19,14.7 18.2,15.2 18.5,16.1 17.7,15.6 17,16.1 17.3,15.2 16.5,14.7 17.5,14.7 	"/>
	<polygon class="st0" points="17.7,18.1 18,19 19,19 18.2,19.5 18.5,20.4 17.7,19.9 17,20.4 17.3,19.5 16.5,19 17.5,19 	"/>
</g>
</svg>
